<?xml version="1.0" encoding="UTF-8"?>
<svg id="Capa_1" xmlns="http://www.w3.org/2000/svg" version="1.1" viewBox="0 0 1920 595">
  <!-- Generator: Adobe Illustrator 30.3.0, SVG Export Plug-In . SVG Version: 2.1.3 Build 182)  -->
  <defs>
    <style>
      .st0 {
        fill: #dddfe2;
      }

      .st1 {
        fill: #2e2d2c;
      }

      .st2 {
        fill: #a08349;
      }

      .st3 {
        fill: #cc2727;
      }

      .st4 {
        fill: #182939;
      }
    </style>
  </defs>
  <g>
    <g>
      <polygon class="st2" points="237.22 163.86 199.58 119.53 191.4 126.32 229.03 170.65 237.22 163.86"/>
      <path class="st2" d="M348.49,115.41c-2.07-.82-4.17-1.58-6.29-2.3l-12.48,33.89,6.31,2.27,12.47-33.86Z"/>
      <rect class="st2" x="292.45" y="86.11" width="10.67" height="57.89"/>
      <path class="st2" d="M265.85,147l-12.48-33.9c-2.12.72-4.22,1.48-6.3,2.3l12.46,33.86,6.31-2.27Z"/>
      <polygon class="st2" points="404.18 126.32 395.99 119.53 358.36 163.86 366.54 170.65 404.18 126.32"/>
      <path class="st3" d="M298.3,396.49l25.05-25.49.26-.26h-.09.09c6.89-7.06,6.72-18.51-.43-25.66-7.15-7.15-18.6-7.23-25.48-.17l-.26.26c-7.15-7.15-18.6-7.23-25.48-.17-6.89,7.06-6.72,18.51.43,25.66l25.91,25.83Z"/>
      <path class="st0" d="M416.86,402.08c-.2-.71-.75-1.26-1.45-1.48-4.82-1.5-24.78-7.12-54.03-7.12-2.32,0-4.57.07-6.76.21,25.35-7.43,48.06-8.18,53.56-8.25.67,0,1.18-.61,1.08-1.27l-.61-4.1c-.08-.56-.58-.97-1.14-.94-90.46,4.08-109.73,42.3-109.73,42.3,0,0-19.27-38.23-109.73-42.3-.57-.03-1.06.38-1.14.94l-.61,4.1c-.1.66.41,1.26,1.08,1.27,5.5.07,28.21.81,53.56,8.25-2.18-.14-4.43-.21-6.76-.21-29.25,0-49.21,5.61-54.03,7.12-.7.22-1.24.78-1.45,1.48l-8.12,28.05h254.38l-8.12-28.05Z"/>
      <path class="st0" d="M436.2,436.1h-124.84c-2.15,0-4.3.31-6.34.99-2.08.69-4.56,1.09-7.24,1.09s-5.16-.4-7.24-1.09c-2.04-.68-4.19-.99-6.34-.99h-124.84c-1.72,0-3.11,1.39-3.11,3.11v6.49c0,1.72,1.39,3.11,3.11,3.11h123.09c2.9,5.49,8.67,9.24,15.32,9.24s12.42-3.74,15.32-9.24h123.09c1.72,0,3.11-1.39,3.11-3.11v-6.49c0-1.72-1.39-3.11-3.11-3.11Z"/>
      <path class="st4" d="M392.47,301.04c-102.4-16.5-113.34-42.66-181.98-45.51-40.25-1.67-97.36,4.83-170.39,41.43,0,.16-.01.31-.01.46,0,141.03,115.32,255.28,257.7,255.28v.07c138.57,0,251.57-108.34,257.42-244.23-71.22,6.78-133.31-2.76-162.74-7.51ZM271.96,345c6.89-7.06,18.34-6.97,25.48.17l.26-.26c6.89-7.06,18.34-6.97,25.48.17,7.15,7.15,7.32,18.6.43,25.66l-.26.26-25.05,25.49-25.91-25.83c-7.15-7.15-7.32-18.6-.43-25.66ZM178.72,402.08c.21-.71.75-1.26,1.45-1.48,4.82-1.5,24.78-7.12,54.03-7.12,2.32,0,4.57.07,6.76.21-25.35-7.43-48.06-8.18-53.56-8.25-.67,0-1.18-.61-1.08-1.27l.61-4.1c.08-.56.58-.97,1.14-.94,90.46,4.08,109.73,42.3,109.73,42.3,0,0,19.27-38.23,109.73-42.3.57-.03,1.06.38,1.14.94l.61,4.1c.1.66-.41,1.26-1.08,1.27-5.5.07-28.21.81-53.56,8.25,2.18-.14,4.43-.21,6.76-.21,29.25,0,49.21,5.61,54.03,7.12.7.22,1.24.78,1.45,1.48l8.12,28.05h-254.38l8.12-28.05ZM439.31,445.7c0,1.72-1.39,3.11-3.11,3.11h-123.09c-2.9,5.49-8.67,9.24-15.32,9.24s-12.42-3.74-15.32-9.24h-123.09c-1.72,0-3.11-1.39-3.11-3.11v-6.49c0-1.72,1.39-3.11,3.11-3.11h124.84c2.15,0,4.3.31,6.34.99,2.08.69,4.56,1.09,7.24,1.09s5.16-.4,7.24-1.09c2.04-.68,4.19-.99,6.34-.99h124.84c1.72,0,3.11,1.39,3.11,3.11v6.49Z"/>
      <path class="st0" d="M297.79,42.22c-142.15,0-257.44,113.94-257.69,254.75,73.03-36.6,130.14-43.1,170.39-41.43,68.64,2.85,79.59,29.01,181.98,45.51,29.43,4.74,91.52,14.28,162.74,7.51.16-3.67.28-7.34.28-11.05,0-141.03-115.39-255.28-257.7-255.28ZM395.99,119.53l8.18,6.79-37.63,44.34-8.18-6.79,37.63-44.34ZM342.2,113.11c2.12.72,4.22,1.48,6.29,2.3l-12.47,33.86-6.31-2.27,12.48-33.89ZM292.45,86.11h10.67v57.89h-10.67v-57.89ZM253.37,113.11l12.48,33.9-6.31,2.27-12.46-33.86c2.07-.82,4.17-1.58,6.3-2.3ZM199.58,119.53l37.63,44.34-8.18,6.79-37.63-44.34,8.18-6.79ZM197.77,231.4l-57.62-10.05,1.87-10.42,57.61,10.04-1.86,10.43ZM207.26,195.61l-30.76-17.56c1.06-1.96,2.28-3.81,3.43-5.71l30.69,17.52-3.36,5.75ZM373.09,281.76c-83.1-16.29-97.65-38.79-159.92-41.79,1.86-44.58,39.1-80.28,84.63-80.28s84.71,37.58,84.71,83.77c0,13.8-3.41,26.82-9.42,38.31ZM388.31,195.61l-3.35-5.75,30.68-17.51c1.15,1.9,2.37,3.75,3.43,5.71l-30.76,17.56ZM432.89,270.37l-34.65-6.04,1.17-6.54,34.49,6.01c-.33,2.19-.57,4.41-1,6.57ZM397.81,231.39l-1.86-10.43,57.62-10.04,1.86,10.43-57.62,10.04Z"/>
      <polygon class="st2" points="395.95 220.96 397.81 231.39 455.43 221.35 453.57 210.92 395.95 220.96"/>
      <path class="st2" d="M398.24,264.33l34.65,6.04c.43-2.16.68-4.37,1-6.57l-34.49-6.01-1.17,6.54Z"/>
      <polygon class="st2" points="140.15 221.35 197.77 231.4 199.63 220.97 142.02 210.92 140.15 221.35"/>
      <path class="st2" d="M415.64,172.34l-30.68,17.51,3.35,5.75,30.76-17.56c-1.06-1.96-2.28-3.81-3.43-5.71Z"/>
      <path class="st2" d="M176.5,178.05l30.76,17.56,3.36-5.75-30.69-17.52c-1.15,1.9-2.37,3.75-3.43,5.71Z"/>
      <path class="st2" d="M297.79,159.68c-45.53,0-82.77,35.71-84.63,80.28,62.27,3,76.83,25.5,159.92,41.79,6-11.49,9.42-24.51,9.42-38.31,0-46.19-38-83.77-84.71-83.77Z"/>
    </g>
    <path class="st4" d="M297.79,9.71C138.85,9.71,10,138.56,10,297.5s128.85,287.79,287.79,287.79,287.79-128.85,287.79-287.79S456.73,9.71,297.79,9.71ZM297.79,561.72v-.07c-147.36,0-266.72-118.26-266.72-264.22S150.5,33.28,297.79,33.28s266.72,118.26,266.72,264.22-119.43,264.22-266.72,264.22Z"/>
  </g>
  <g>
    <g>
      <polygon class="st4" points="763.56 247.67 684.77 148.66 648 148.66 648 335.66 700.53 335.66 700.53 239.94 776.7 335.66 816.09 335.66 816.09 148.66 763.56 148.66 763.56 247.67"/>
      <polygon class="st4" points="906.18 261.59 986.81 261.59 986.81 219.04 906.18 219.04 906.18 192.25 994.95 192.25 994.95 148.66 906.18 148.66 896.2 148.66 853.65 148.66 853.65 335.66 896.2 335.66 906.18 335.66 996.52 335.66 996.52 292.06 906.18 292.06 906.18 261.59"/>
      <polygon class="st4" points="1197.66 250.87 1168.56 148.66 1125.22 148.66 1096.25 250.41 1066.91 148.66 1014.65 148.66 1073.48 335.66 1117.08 335.66 1146.76 231.59 1176.44 335.66 1220.04 335.66 1278.87 148.66 1227.13 148.66 1197.66 250.87"/>
      <polygon class="st4" points="1402.42 238.42 1341.11 148.66 1303.03 148.66 1303.03 335.66 1355.03 335.66 1355.03 247.53 1385.5 291.53 1419.12 291.53 1449.59 247.83 1449.59 335.66 1501.59 335.66 1501.59 148.66 1463.51 148.66 1402.42 238.42"/>
      <path class="st4" d="M1596.4,148.66l-71.18,187h53.58l10.63-31.52h65.94l10.37,31.52h54.63l-70.39-187h-53.58ZM1603.25,263.17l19.56-58.02,19.08,58.02h-38.65Z"/>
      <polygon class="st4" points="1857.47 148.66 1857.47 247.67 1778.68 148.66 1741.91 148.66 1741.91 335.66 1794.44 335.66 1794.44 239.94 1870.6 335.66 1910 335.66 1910 148.66 1857.47 148.66"/>
    </g>
    <g>
      <path class="st1" d="M688.91,441.05c-3.76,1.68-8.05,2.52-12.86,2.52-4.23,0-8.13-.77-11.71-2.3-3.57-1.53-6.67-3.7-9.3-6.51-2.63-2.81-4.67-6.11-6.13-9.9-1.46-3.79-2.19-7.91-2.19-12.37s.71-8.55,2.13-12.31c1.42-3.76,3.46-7.04,6.13-9.85s5.76-4.98,9.3-6.51c3.54-1.53,7.42-2.3,11.65-2.3,4.6,0,8.75.82,12.47,2.46s6.9,3.92,9.52,6.84l5.47-5.47c-3.43-3.57-7.42-6.38-11.98-8.43-4.56-2.04-9.72-3.07-15.48-3.07-5.33,0-10.29.99-14.88,2.95-4.59,1.97-8.59,4.71-11.98,8.21-3.39,3.5-6.02,7.61-7.88,12.31-1.86,4.7-2.79,9.76-2.79,15.16s.93,10.45,2.79,15.16c1.86,4.7,4.5,8.85,7.93,12.42,3.43,3.58,7.46,6.35,12.09,8.32s9.65,2.95,15.05,2.95c5.76,0,10.98-1.04,15.65-3.12,4.67-2.08,8.68-4.91,12.04-8.48l-5.47-5.58c-2.63,2.92-5.82,5.22-9.57,6.9Z"/>
      <polygon class="st1" points="728.69 415.23 766.77 415.23 766.77 408.11 728.69 408.11 728.69 382.28 769.62 382.28 769.62 374.95 728.69 374.95 725.95 374.95 720.7 374.95 720.7 450.24 725.95 450.24 728.69 450.24 770.27 450.24 770.27 442.91 728.69 442.91 728.69 415.23"/>
      <polygon class="st1" points="837.58 434.76 793.58 374.95 787.89 374.95 787.89 450.24 795.88 450.24 795.88 390.43 839.98 450.24 845.67 450.24 845.67 374.95 837.58 374.95 837.58 434.76"/>
      <polygon class="st1" points="861.98 382.28 888.46 382.28 888.46 450.24 896.56 450.24 896.56 382.28 923.04 382.28 923.04 374.95 861.98 374.95 861.98 382.28"/>
      <path class="st1" d="M979.07,413.97c3.5-1.71,6.18-4.14,8.04-7.28,1.86-3.14,2.79-6.79,2.79-10.94s-.93-7.59-2.79-10.72c-1.86-3.14-4.54-5.6-8.04-7.39-3.5-1.79-7.7-2.68-12.59-2.68h-27.03v75.29h7.99v-33.71h10.19l27.35,33.71h10.29l-27.81-33.75c4.46-.11,8.35-.93,11.62-2.53ZM947.45,381.96h19.04c4.96,0,8.76,1.3,11.38,3.88,2.62,2.59,3.94,5.93,3.94,10.01s-1.32,7.61-3.94,10.12c-2.63,2.52-6.42,3.78-11.38,3.78h-19.04v-27.8Z"/>
      <path class="st1" d="M1069.03,385.02c-3.43-3.5-7.43-6.24-11.98-8.21-4.56-1.97-9.51-2.95-14.83-2.95s-10.25.99-14.78,2.95c-4.52,1.97-8.5,4.71-11.93,8.21-3.43,3.5-6.09,7.59-7.99,12.26-1.9,4.67-2.84,9.74-2.84,15.21s.97,10.45,2.9,15.16c1.93,4.7,4.61,8.83,8.04,12.37,3.43,3.54,7.42,6.31,11.98,8.32,4.56,2.01,9.5,3.01,14.83,3.01s10.25-1,14.78-3.01c4.52-2.01,8.48-4.76,11.87-8.26,3.4-3.5,6.04-7.61,7.94-12.31,1.89-4.7,2.84-9.76,2.84-15.16s-.95-10.56-2.84-15.27c-1.9-4.71-4.56-8.81-7.99-12.31ZM1067.77,428.47c-2.52,4.67-5.98,8.36-10.4,11.05-4.41,2.7-9.47,4.05-15.15,4.05-4.16,0-8.03-.77-11.6-2.3-3.58-1.53-6.67-3.7-9.3-6.51-2.63-2.81-4.67-6.11-6.13-9.9-1.46-3.79-2.19-7.91-2.19-12.37,0-5.98,1.26-11.31,3.78-15.98s5.98-8.34,10.39-11,9.43-3.99,15.05-3.99c4.3,0,8.22.77,11.76,2.3,3.54,1.53,6.62,3.7,9.25,6.51s4.67,6.09,6.13,9.85c1.46,3.76,2.19,7.86,2.19,12.31,0,5.98-1.26,11.31-3.77,15.98Z"/>
      <path class="st1" d="M1178.95,385.62c-3.47-3.39-7.51-6.02-12.15-7.88-4.63-1.86-9.68-2.79-15.15-2.79h-27.25v75.29h27.47c5.4,0,10.42-.95,15.05-2.85,4.63-1.89,8.66-4.54,12.09-7.93,3.43-3.39,6.09-7.39,7.99-11.98,1.89-4.6,2.84-9.56,2.84-14.88s-.95-10.49-2.84-15.05c-1.9-4.56-4.58-8.54-8.05-11.93ZM1177.69,428.19c-2.55,4.56-6.09,8.14-10.62,10.72-4.52,2.59-9.74,3.88-15.65,3.88h-19.04v-60.52h19.04c5.91,0,11.13,1.3,15.65,3.88,4.53,2.59,8.06,6.15,10.62,10.67,2.55,4.52,3.83,9.74,3.83,15.65s-1.28,11.15-3.83,15.7Z"/>
      <polygon class="st1" points="1216 415.23 1254.08 415.23 1254.08 408.11 1216 408.11 1216 382.28 1256.93 382.28 1256.93 374.95 1216 374.95 1213.26 374.95 1208.01 374.95 1208.01 450.24 1213.26 450.24 1216 450.24 1257.58 450.24 1257.58 442.91 1216 442.91 1216 415.23"/>
      <polygon class="st1" points="1309.46 415.23 1347.54 415.23 1347.54 408.11 1309.46 408.11 1309.46 382.28 1350.39 382.28 1350.39 374.95 1309.46 374.95 1306.72 374.95 1301.47 374.95 1301.47 450.24 1306.72 450.24 1309.46 450.24 1351.04 450.24 1351.04 442.91 1309.46 442.91 1309.46 415.23"/>
      <path class="st1" d="M1404.61,414.46c-2.22-1.68-4.69-3.07-7.39-4.16s-5.38-2.1-8.05-3.01c-2.66-.91-5.13-1.95-7.39-3.12-2.26-1.16-4.07-2.62-5.42-4.38-1.35-1.75-2.02-4.05-2.02-6.9,0-3.65,1.32-6.49,3.94-8.53,2.62-2.04,6.13-3.07,10.5-3.07,3.72,0,6.97.73,9.74,2.19,2.77,1.46,5.33,3.58,7.66,6.35l5.47-5.47c-2.55-3.21-5.74-5.76-9.58-7.66-3.83-1.9-8.19-2.85-13.07-2.85-4.38,0-8.28.79-11.71,2.35-3.43,1.57-6.13,3.81-8.1,6.73-1.97,2.92-2.96,6.42-2.96,10.51,0,3.87.68,7.04,2.02,9.52,1.35,2.48,3.16,4.52,5.42,6.13s4.72,2.94,7.39,3.99,5.35,2.06,8.05,3.01c2.7.95,5.16,2.02,7.39,3.23,2.22,1.2,4.03,2.77,5.42,4.7,1.38,1.93,2.08,4.4,2.08,7.39,0,3.87-1.49,6.9-4.49,9.08s-6.9,3.28-11.71,3.28-8.7-.87-12.09-2.63c-3.39-1.75-6.36-4.41-8.92-7.99l-5.58,5.47c3.21,4.01,6.93,7.13,11.16,9.36,4.23,2.22,9.26,3.34,15.1,3.34,7.59,0,13.58-1.81,18-5.42,4.41-3.61,6.62-8.66,6.62-15.16,0-4.01-.7-7.31-2.08-9.9-1.39-2.59-3.19-4.72-5.42-6.4Z"/>
      <polygon class="st1" points="1420.64 382.28 1447.13 382.28 1447.13 450.24 1455.22 450.24 1455.22 382.28 1481.71 382.28 1481.71 374.95 1420.64 374.95 1420.64 382.28"/>
      <path class="st1" d="M1544.74,422.88c0,4.23-.89,7.9-2.68,11-1.79,3.1-4.2,5.49-7.22,7.17-3.03,1.68-6.48,2.52-10.34,2.52s-7.35-.84-10.45-2.52c-3.1-1.68-5.53-4.09-7.28-7.22-1.75-3.14-2.63-6.82-2.63-11.05v-47.82h-8.1v48.26c0,5.33,1.24,10.12,3.72,14.39,2.48,4.27,5.85,7.63,10.12,10.07,4.27,2.45,9.14,3.67,14.61,3.67s10.23-1.22,14.5-3.67c4.27-2.44,7.62-5.78,10.07-10.01,2.45-4.23,3.67-9.01,3.67-14.34v-48.37h-7.99v47.93Z"/>
      <path class="st1" d="M1628.29,385.62c-3.47-3.39-7.51-6.02-12.15-7.88-4.63-1.86-9.68-2.79-15.15-2.79h-27.25v75.29h27.47c5.4,0,10.42-.95,15.05-2.85,4.63-1.89,8.66-4.54,12.09-7.93,3.43-3.39,6.09-7.39,7.99-11.98,1.89-4.6,2.84-9.56,2.84-14.88s-.95-10.49-2.84-15.05c-1.9-4.56-4.58-8.54-8.05-11.93ZM1627.03,428.19c-2.55,4.56-6.09,8.14-10.62,10.72-4.52,2.59-9.74,3.88-15.65,3.88h-19.04v-60.52h19.04c5.91,0,11.13,1.3,15.65,3.88,4.53,2.59,8.06,6.15,10.62,10.67s3.83,9.74,3.83,15.65-1.28,11.15-3.83,15.7Z"/>
      <rect class="st1" x="1657.35" y="374.95" width="7.99" height="75.29"/>
      <path class="st1" d="M1747.85,385.02c-3.43-3.5-7.43-6.24-11.98-8.21-4.56-1.97-9.51-2.95-14.83-2.95s-10.25.99-14.78,2.95c-4.52,1.97-8.5,4.71-11.93,8.21-3.43,3.5-6.09,7.59-7.99,12.26-1.9,4.67-2.84,9.74-2.84,15.21s.97,10.45,2.9,15.16c1.93,4.7,4.61,8.83,8.04,12.37,3.43,3.54,7.42,6.31,11.98,8.32,4.56,2.01,9.5,3.01,14.83,3.01s10.25-1,14.78-3.01c4.52-2.01,8.48-4.76,11.87-8.26,3.4-3.5,6.04-7.61,7.94-12.31,1.89-4.7,2.84-9.76,2.84-15.16s-.95-10.56-2.84-15.27c-1.9-4.71-4.56-8.81-7.99-12.31ZM1746.59,428.47c-2.52,4.67-5.98,8.36-10.4,11.05-4.41,2.7-9.47,4.05-15.15,4.05-4.16,0-8.03-.77-11.6-2.3-3.58-1.53-6.67-3.7-9.3-6.51-2.63-2.81-4.67-6.11-6.13-9.9-1.46-3.79-2.19-7.91-2.19-12.37,0-5.98,1.26-11.31,3.78-15.98s5.98-8.34,10.39-11,9.43-3.99,15.05-3.99c4.3,0,8.22.77,11.76,2.3,3.54,1.53,6.62,3.7,9.25,6.51s4.67,6.09,6.13,9.85c1.46,3.76,2.19,7.86,2.19,12.31,0,5.98-1.26,11.31-3.77,15.98Z"/>
      <path class="st1" d="M1818,420.86c-1.39-2.59-3.19-4.72-5.42-6.4s-4.69-3.07-7.39-4.16-5.38-2.1-8.05-3.01c-2.66-.91-5.13-1.95-7.39-3.12-2.26-1.16-4.07-2.62-5.42-4.38-1.35-1.75-2.02-4.05-2.02-6.9,0-3.65,1.32-6.49,3.94-8.53,2.62-2.04,6.13-3.07,10.5-3.07,3.72,0,6.97.73,9.74,2.19,2.77,1.46,5.33,3.58,7.66,6.35l5.47-5.47c-2.55-3.21-5.74-5.76-9.58-7.66-3.83-1.9-8.19-2.85-13.07-2.85-4.38,0-8.28.79-11.71,2.35-3.43,1.57-6.13,3.81-8.1,6.73-1.97,2.92-2.96,6.42-2.96,10.51,0,3.87.68,7.04,2.02,9.52,1.35,2.48,3.16,4.52,5.42,6.13s4.72,2.94,7.39,3.99,5.35,2.06,8.05,3.01c2.7.95,5.16,2.02,7.39,3.23,2.22,1.2,4.03,2.77,5.42,4.7,1.38,1.93,2.08,4.4,2.08,7.39,0,3.87-1.49,6.9-4.49,9.08s-6.9,3.28-11.71,3.28-8.7-.87-12.09-2.63c-3.39-1.75-6.36-4.41-8.92-7.99l-5.58,5.47c3.21,4.01,6.93,7.13,11.16,9.36,4.23,2.22,9.26,3.34,15.1,3.34,7.59,0,13.58-1.81,18-5.42,4.41-3.61,6.62-8.66,6.62-15.16,0-4.01-.7-7.31-2.08-9.9Z"/>
    </g>
  </g>
</svg>