<?xml version="1.0" encoding="UTF-8"?>
<svg id="Capa_1" xmlns="http://www.w3.org/2000/svg" version="1.1" viewBox="0 0 500 105">
  <!-- Generator: Adobe Illustrator 30.3.0, SVG Export Plug-In . SVG Version: 2.1.3 Build 182)  -->
  <defs>
    <style>
      .st0 {
        fill: #cc2727;
      }

      .st1 {
        fill: #182939;
      }
    </style>
  </defs>
  <g>
    <path class="st1" d="M64.68,80.23c-3.61,1.62-7.87,2.43-12.76,2.43-4.14,0-7.94-.74-11.41-2.2-3.46-1.47-6.48-3.56-9.04-6.27-2.56-2.71-4.54-5.91-5.93-9.6-1.39-3.69-2.09-7.72-2.09-12.09s.69-8.39,2.09-12.08c1.39-3.69,3.37-6.89,5.93-9.6s5.57-4.8,9.04-6.27c3.46-1.47,7.27-2.2,11.41-2.2,4.59,0,8.68.79,12.25,2.37s6.61,3.77,9.09,6.55l7.34-7.34c-3.61-3.61-7.76-6.47-12.42-8.58-4.67-2.11-10.09-3.16-16.26-3.16-5.65,0-10.86,1.04-15.64,3.11-4.78,2.07-8.96,4.93-12.54,8.58-3.58,3.65-6.34,7.93-8.3,12.82-1.96,4.9-2.94,10.16-2.94,15.81s.98,10.81,2.94,15.7c1.96,4.9,4.72,9.19,8.3,12.87,3.58,3.69,7.77,6.57,12.59,8.64s10.05,3.11,15.7,3.11c6.1,0,11.58-1.06,16.43-3.16,4.86-2.11,9.09-5.04,12.71-8.81l-7.34-7.23c-2.48,2.79-5.53,4.99-9.15,6.61h0Z"/>
    <path class="st1" d="M157.4,23.81c-3.61-3.69-7.81-6.55-12.59-8.58-4.78-2.03-9.96-3.05-15.53-3.05s-10.75,1.02-15.53,3.05-8.96,4.89-12.54,8.58-6.36,7.96-8.36,12.82c-2,4.86-2.99,10.11-2.99,15.75s1,10.8,2.99,15.7c1.99,4.9,4.8,9.2,8.41,12.93,3.61,3.73,7.83,6.63,12.65,8.7s10.01,3.11,15.59,3.11,10.63-1.04,15.42-3.11c4.78-2.07,8.96-4.95,12.54-8.64,3.58-3.69,6.38-7.98,8.41-12.87s3.05-10.13,3.05-15.7-1.02-10.92-3.05-15.81-4.86-9.18-8.47-12.87h0ZM154.24,68.03c-2.49,4.56-5.86,8.13-10.11,10.73s-9.2,3.9-14.85,3.9c-4.14,0-7.96-.75-11.46-2.26-3.5-1.5-6.51-3.6-9.04-6.27-2.52-2.67-4.48-5.87-5.87-9.6-1.39-3.73-2.09-7.77-2.09-12.14,0-5.87,1.22-11.07,3.67-15.59s5.8-8.05,10.05-10.62c4.25-2.56,9.17-3.84,14.74-3.84,4.22,0,8.06.73,11.52,2.2,3.46,1.47,6.47,3.56,9.03,6.27,2.56,2.71,4.56,5.89,5.99,9.54,1.43,3.65,2.15,7.66,2.15,12.03,0,5.87-1.24,11.09-3.73,15.64h0Z"/>
    <path class="st1" d="M228.1,54.82c3.69-1.84,6.53-4.42,8.53-7.74,2-3.31,2.99-7.19,2.99-11.63s-1-8.09-2.99-11.41c-2-3.31-4.84-5.93-8.53-7.85s-8.02-2.88-12.99-2.88h-28.8v78.38h10.62v-34.11h6.92l27.64,34.11h13.44l-28.19-34.18c4.28-.18,8.09-1.05,11.36-2.69h0ZM196.93,22.57h17.84c4.59,0,8.11,1.24,10.56,3.73s3.67,5.61,3.67,9.37c0,3.99-1.24,7.15-3.73,9.49-2.48,2.33-6.02,3.5-10.62,3.5h-17.73v-26.09h0Z"/>
    <path class="st1" d="M316.24,24.49c-3.58-3.54-7.79-6.29-12.65-8.24-4.86-1.96-10.15-2.94-15.87-2.94h-29.02v78.38h29.25c5.65,0,10.9-.98,15.75-2.94,4.86-1.96,9.05-4.71,12.59-8.24,3.54-3.54,6.3-7.7,8.3-12.48s2.99-9.96,2.99-15.53-1-10.84-2.99-15.59c-2-4.74-4.78-8.88-8.36-12.42h0ZM312.97,67.75c-2.45,4.44-5.86,7.93-10.22,10.45-4.37,2.52-9.45,3.78-15.25,3.78h-18.18V23.02h18.18c5.72,0,10.77,1.24,15.13,3.73,4.37,2.49,7.79,5.95,10.28,10.39,2.48,4.44,3.73,9.53,3.73,15.25s-1.22,10.92-3.67,15.36Z"/>
    <rect class="st1" x="345.1" y="13.31" width="10.62" height="78.38"/>
    <path class="st1" d="M421.73,60.35c-1.39-2.75-3.22-4.99-5.48-6.72-2.26-1.73-4.74-3.16-7.45-4.29s-5.44-2.16-8.19-3.11c-2.75-.94-5.25-1.98-7.51-3.11s-4.09-2.5-5.48-4.12-2.09-3.74-2.09-6.38c0-3.31,1.24-5.89,3.73-7.74,2.48-1.84,5.83-2.77,10.05-2.77,3.46,0,6.53.68,9.2,2.03,2.67,1.36,5.17,3.39,7.51,6.1l7.23-7.23c-2.56-3.24-5.87-5.85-9.94-7.85s-8.66-2.99-13.78-2.99c-4.67,0-8.86.85-12.59,2.54s-6.66,4.1-8.81,7.23c-2.15,3.12-3.22,6.91-3.22,11.35,0,3.99.7,7.3,2.09,9.94,1.39,2.64,3.22,4.76,5.48,6.38s4.74,2.98,7.45,4.07c2.71,1.09,5.42,2.11,8.13,3.05s5.21,2,7.51,3.16c2.29,1.17,4.12,2.65,5.48,4.46,1.35,1.81,2.03,4.18,2.03,7.12,0,3.54-1.41,6.32-4.24,8.36-2.82,2.03-6.57,3.05-11.24,3.05s-8.74-.88-11.97-2.65c-3.24-1.77-6.1-4.38-8.58-7.85l-7.23,7.23c3.39,4.29,7.27,7.57,11.63,9.83,4.37,2.26,9.64,3.39,15.81,3.39,8.13,0,14.59-1.96,19.37-5.87s7.17-9.34,7.17-16.26c0-4.14-.7-7.58-2.09-10.33l.02-.02Z"/>
  </g>
  <g>
    <path class="st0" d="M451.49,48.15l-17.82,43.54h6.27l3.94-9.85h19.31l3.91,9.85h6.4l-17.75-43.54h-4.27.01ZM445.94,76.69l7.64-19.08,7.57,19.08h-15.21Z"/>
    <rect class="st0" x="481.6" y="48.15" width="5.9" height="43.54"/>
  </g>
</svg>