<svg xmlns="http://www.w3.org/2000/svg" viewBox="110 0 360 595">
  <g>
    <polygon fill="#a08349" points="237.22 163.86 199.58 119.53 191.4 126.32 229.03 170.65 237.22 163.86"/>
    <path fill="#a08349" d="M348.49,115.41c-2.07-.82-4.17-1.58-6.29-2.3l-12.48,33.89,6.31,2.27,12.47-33.86Z"/>
    <rect fill="#a08349" x="292.45" y="86.11" width="10.67" height="57.89"/>
    <path fill="#a08349" d="M265.85,147l-12.48-33.9c-2.12.72-4.22,1.48-6.3,2.3l12.46,33.86,6.31-2.27Z"/>
    <polygon fill="#a08349" points="404.18 126.32 395.99 119.53 358.36 163.86 366.54 170.65 404.18 126.32"/>
    <path fill="#cc2727" d="M298.3,396.49l25.05-25.49.26-.26h-.09.09c6.89-7.06,6.72-18.51-.43-25.66-7.15-7.15-18.6-7.23-25.48-.17l-.26.26c-7.15-7.15-18.6-7.23-25.48-.17-6.89,7.06-6.72,18.51.43,25.66l25.91,25.83Z"/>
    <path fill="#dddfe2" d="M416.86,402.08c-.2-.71-.75-1.26-1.45-1.48-4.82-1.5-24.78-7.12-54.03-7.12-2.32,0-4.57.07-6.76.21,25.35-7.43,48.06-8.18,53.56-8.25.67,0,1.18-.61,1.08-1.27l-.61-4.1c-.08-.56-.58-.97-1.14-.94-90.46,4.08-109.73,42.3-109.73,42.3,0,0-19.27-38.23-109.73-42.3-.57-.03-1.06.38-1.14.94l-.61,4.1c-.1.66.41,1.26,1.08,1.27,5.5.07,28.21.81,53.56,8.25-2.18-.14-4.43-.21-6.76-.21-29.25,0-49.21,5.61-54.03,7.12-.7.22-1.24.78-1.45,1.48l-8.12,28.05h254.38l-8.12-28.05Z"/>
    <path fill="#dddfe2" d="M436.2,436.1h-124.84c-2.15,0-4.3.31-6.34.99-2.08.69-4.56,1.09-7.24,1.09s-5.16-.4-7.24-1.09c-2.04-.68-4.19-.99-6.34-.99h-124.84c-1.72,0-3.11,1.39-3.11,3.11v6.49c0,1.72,1.39,3.11,3.11,3.11h123.09c2.9,5.49,8.67,9.24,15.32,9.24s12.42-3.74,15.32-9.24h123.09c1.72,0,3.11-1.39,3.11-3.11v-6.49c0-1.72-1.39-3.11-3.11-3.11Z"/>
    <path fill="#182939" d="M392.47,301.04c-102.4-16.5-113.34-42.66-181.98-45.51-40.25-1.67-97.36,4.83-170.39,41.43,0,.16-.01.31-.01.46,0,141.03,115.32,255.28,257.7,255.28v.07c138.57,0,251.57-108.34,257.42-244.23-71.22,6.78-133.31-2.76-162.74-7.51ZM271.96,345c6.89-7.06,18.34-6.97,25.48.17l.26-.26c6.89-7.06,18.34-6.97,25.48.17,7.15,7.15,7.32,18.6.43,25.66l-.26.26-25.05,25.49-25.91-25.83c-7.15-7.15-7.32-18.6-.43-25.66ZM178.72,402.08c.21-.71.75-1.26,1.45-1.48,4.82-1.5,24.78-7.12,54.03-7.12,2.32,0,4.57.07,6.76.21-25.35-7.43-48.06-8.18-53.56-8.25-.67,0-1.18-.61-1.08-1.27l.61-4.1c.08-.56.58-.97,1.14-.94,90.46,4.08,109.73,42.3,109.73,42.3,0,0,19.27-38.23,109.73-42.3.57-.03,1.06.38,1.14.94l.61,4.1c.1.66-.41,1.26-1.08,1.27-5.5.07-28.21.81-53.56,8.25,2.18-.14,4.43-.21,6.76-.21,29.25,0,49.21,5.61,54.03,7.12.7.22,1.24.78,1.45,1.48l8.12,28.05h-254.38l8.12-28.05ZM439.31,445.7c0,1.72-1.39,3.11-3.11,3.11h-123.09c-2.9,5.49-8.67,9.24-15.32,9.24s-12.42-3.74-15.32-9.24h-123.09c-1.72,0-3.11-1.39-3.11-3.11v-6.49c0-1.72,1.39-3.11,3.11-3.11h124.84c2.15,0,4.3.31,6.34.99,2.08.69,4.56,1.09,7.24,1.09s5.16-.4,7.24-1.09c2.04-.68,4.19-.99,6.34-.99h124.84c1.72,0,3.11,1.39,3.11,3.11v6.49Z"/>
    <path fill="#dddfe2" d="M297.79,42.22c-142.15,0-257.44,113.94-257.69,254.75,73.03-36.6,130.14-43.1,170.39-41.43,68.64,2.85,79.59,29.01,181.98,45.51,29.43,4.74,91.52,14.28,162.74,7.51.16-3.67.28-7.34.28-11.05,0-141.03-115.39-255.28-257.7-255.28ZM395.99,119.53l8.18,6.79-37.63,44.34-8.18-6.79,37.63-44.34ZM342.2,113.11c2.12.72,4.22,1.48,6.29,2.3l-12.47,33.86-6.31-2.27,12.48-33.89ZM292.45,86.11h10.67v57.89h-10.67v-57.89ZM253.37,113.11l12.48,33.9-6.31,2.27-12.46-33.86c2.07-.82,4.17-1.58,6.3-2.3ZM199.58,119.53l37.63,44.34-8.18,6.79-37.63-44.34,8.18-6.79ZM197.77,231.4l-57.62-10.05,1.87-10.42,57.61,10.04-1.86,10.43ZM207.26,195.61l-30.76-17.56c1.06-1.96,2.28-3.81,3.43-5.71l30.69,17.52-3.36,5.75ZM373.09,281.76c-83.1-16.29-97.65-38.79-159.92-41.79,1.86-44.58,39.1-80.28,84.63-80.28s84.71,37.58,84.71,83.77c0,13.8-3.41,26.82-9.42,38.31ZM388.31,195.61l-3.35-5.75,30.68-17.51c1.15,1.9,2.37,3.75,3.43,5.71l-30.76,17.56ZM432.89,270.37l-34.65-6.04,1.17-6.54,34.49,6.01c-.33,2.19-.57,4.41-1,6.57ZM397.81,231.39l-1.86-10.43,57.62-10.04,1.86,10.43-57.62,10.04Z"/>
    <polygon fill="#a08349" points="395.95 220.96 397.81 231.39 455.43 221.35 453.57 210.92 395.95 220.96"/>
    <path fill="#a08349" d="M398.24,264.33l34.65,6.04c.43-2.16.68-4.37,1-6.57l-34.49-6.01-1.17,6.54Z"/>
    <polygon fill="#a08349" points="140.15 221.35 197.77 231.4 199.63 220.97 142.02 210.92 140.15 221.35"/>
    <path fill="#a08349" d="M415.64,172.34l-30.68,17.51,3.35,5.75,30.76-17.56c-1.06-1.96-2.28-3.81-3.43-5.71Z"/>
    <path fill="#a08349" d="M176.5,178.05l30.76,17.56,3.36-5.75-30.69-17.52c-1.15,1.9-2.37,3.75-3.43,5.71Z"/>
    <path fill="#a08349" d="M297.79,159.68c-45.53,0-82.77,35.71-84.63,80.28,62.27,3,76.83,25.5,159.92,41.79,6-11.49,9.42-24.51,9.42-38.31,0-46.19-38-83.77-84.71-83.77Z"/>
  </g>
  <path fill="#182939" d="M297.79,9.71C138.85,9.71,10,138.56,10,297.5s128.85,287.79,287.79,287.79,287.79-128.85,287.79-287.79S456.73,9.71,297.79,9.71ZM297.79,561.72v-.07c-147.36,0-266.72-118.26-266.72-264.22S150.5,33.28,297.79,33.28s266.72,118.26,266.72,264.22-119.43,264.22-266.72,264.22Z"/>
</svg>
